<svg xmlns="http://www.w3.org/2000/svg" viewBox="0 0 256 256" fill="none">
  <rect width="256" height="256" rx="28" fill="#0C4B33"/>
  <path d="M140.16 72v89.27c-14.07 2.65-24.36 3.71-35.62 3.71-33.49 0-50.9-15.13-50.9-44.17 0-27.97 18.48-46.09 47.16-46.09 4.06 0 7.06.35 11.36 1.41V72h28zm-28 53.63V99.3c-3.18-.71-5.83-1.06-9.01-1.06-13.72 0-21.49 8.48-21.49 23.61 0 14.78 7.42 22.55 21.14 22.55 3.18 0 5.83-.35 9.36-.71v-18.06zM168 72h28v39.39h.71c7.42-9.89 14.07-13.25 24.01-13.25 17.07 0 27.68 13.6 27.68 36.15 0 25.44-12.31 40.93-32.08 40.93-10.3 0-17.07-3.71-22.19-12.54H193v10.42h-25V72zm28 76.85c0 12.54 5.48 20.32 14.84 20.32 9.72 0 15.55-8.48 15.55-22.55 0-13.25-5.48-21.38-14.84-21.38-9.72 0-15.55 8.13-15.55 23.61zM140.16 170.54h-28V192h28v-21.46z" fill="white"/>
</svg>
